# xmcd CD database file
# Generated: Son Sep 28 00:53:50 2003 by KSCD
# 
# Track frame offsets:
#       150
#       13543
#       27052
#       40806
#       54688
#       68086
#       80677
#       97566
#       108899
#       121565
#       133930
#       146712
#       158624
#       169758
#       181998
#       195267
#       209443
#       220637
#
# Disc length: 3109 seconds
#
# Revision: 0
# Processed by: cddbd v1.4PL0 Copyright (c) Steve Scherf et al.
# Submitted via: Kscd 1.3.3
#
DISCID=e40c2312
DTITLE=Various Artist - The story of Rhythm and Blues [CD4)
DYEAR=1900
DGENRE=
TTITLE0=Pee Wee Crayton - Texas Hop 
TTITLE1=Ivory Joe Hunter - We're gonna boogie 
TTITLE2=Buddy Johnson - Fine brown frame 
TTITLE3=Dick Davis and Sonny Thompson - Memphis Train 
TTITLE4=Amos Wilburn - Down the road apiece 
TTITLE5=Wynonie Harris - Lolipop mama 
TTITLE6=Howlin' Wolf - All my life 
TTITLE7=Jimmy Liggins - The washboard special 
TTITLE8=Jimmy McCracklin - Rock and Rye 
TTITLE9=Louis Jordan - Choo choo ch'Boogie 
TTITLE10=Pete Johnson and Joe Turner - Roll 'em Pete 
TTITLE11=Muddy Waters - Baby please don't go 
TTITLE12=Fats Waller - Spring cleaning 
TTITLE13=Roy Brown - Rocking at midnight 
TTITLE14=Cripple Clarence Lofton - Strut that thing 
TTITLE15=John Lee Hooker - Boogie Chillin' 
TTITLE16=Baul Gayton - You're hands ain't clean 
TTITLE17=Lionell Hampton Orchestra - Lavender coffin 
EXTD=(c) Digimode Entertainment Ltd. UK 
EXTT0=Crayton - Taub 
EXTT1=Hunter 
EXTT2=Cartiero - Williams 
EXTT3=Davis - Thompson 
EXTT4=Milburn 
EXTT5=Brown 
EXTT6=Burnett 
EXTT7=Liggins 
EXTT8=McCracklin 
EXTT9=Horton - Darling - Gabler 
EXTT10=Turner - Johnson 
EXTT11=Williams 
EXTT12=Samuels - Whitcup - Powell 
EXTT13=Brown 
EXTT14=Lofton 
EXTT15=Hooker 
EXTT16=Gayton 
EXTT17=Albert 
PLAYORDER=
